<?xml version="1.0" encoding="UTF-8" standalone="no"?>
<!-- Created with Inkscape (http://www.inkscape.org/) -->

<svg
   xmlns:dc="http://purl.org/dc/elements/1.1/"
   xmlns:cc="http://creativecommons.org/ns#"
   xmlns:rdf="http://www.w3.org/1999/02/22-rdf-syntax-ns#"
   xmlns:svg="http://www.w3.org/2000/svg"
   xmlns="http://www.w3.org/2000/svg"
   xmlns:sodipodi="http://sodipodi.sourceforge.net/DTD/sodipodi-0.dtd"
   xmlns:inkscape="http://www.inkscape.org/namespaces/inkscape"
   width="500"
   height="118"
   viewBox="0 0 500.00001 118"
   id="svg8239"
   version="1.1"
   inkscape:version="0.91 r13725"
   sodipodi:docname="astroCalc-white.svg">
  <defs
     id="defs8241" />
  <sodipodi:namedview
     id="base"
     pagecolor="#ffffff"
     bordercolor="#666666"
     borderopacity="1.0"
     inkscape:pageopacity="0.0"
     inkscape:pageshadow="2"
     inkscape:zoom="0.7"
     inkscape:cx="-56.32291"
     inkscape:cy="126.3882"
     inkscape:document-units="px"
     inkscape:current-layer="text5687"
     showgrid="false"
     inkscape:window-width="1024"
     inkscape:window-height="739"
     inkscape:window-x="0"
     inkscape:window-y="0"
     inkscape:window-maximized="1"
     units="px" />
  <metadata
     id="metadata8244">
    <rdf:RDF>
      <cc:Work
         rdf:about="">
        <dc:format>image/svg+xml</dc:format>
        <dc:type
           rdf:resource="http://purl.org/dc/dcmitype/StillImage" />
        <dc:title />
      </cc:Work>
    </rdf:RDF>
  </metadata>
  <g
     inkscape:label="Camada 1"
     inkscape:groupmode="layer"
     id="layer1"
     transform="translate(0,-934.36216)">
    <g
       transform="matrix(1.4331904,0,0,1.4381468,3363.6161,-54.146363)"
       id="g5746">
      <g
         transform="translate(-1638.4675,-64.649763)"
         id="g5669">
        <g
           transform="matrix(1.0573597,0,0,1.0573597,-11.502986,-159.58538)"
           id="g5671">
          <path
             transform="matrix(-0.49775688,0.8673166,0.8673166,0.49775688,0,0)"
             sodipodi:open="true"
             d="m 1022.7021,36.590958 a 12.653417,12.653417 0 0 1 8.1335,-14.087565 12.653417,12.653417 0 0 1 15.2859,5.563613"
             sodipodi:end="5.7595865"
             sodipodi:start="2.9670597"
             sodipodi:ry="12.653417"
             sodipodi:rx="12.653417"
             sodipodi:cy="34.393715"
             sodipodi:cx="1035.1633"
             sodipodi:type="arc"
             id="path5673"
             style="fill:none;fill-opacity:1;stroke:#ffffff;stroke-width:1.9531101;stroke-miterlimit:4;stroke-dasharray:none;stroke-dashoffset:0" />
          <circle
             transform="matrix(0.9971916,0.07489267,-0.07489267,0.9971916,0,0)"
             id="circle5675"
             style="fill:none;fill-opacity:1;stroke:#ffffff;stroke-width:0.78124398;stroke-miterlimit:4;stroke-dasharray:0.781244, 0.781244;stroke-dashoffset:0"
             cx="-414.5267"
             cy="947.98193"
             r="23.34329" />
          <path
             style="fill:none;fill-opacity:1;stroke:#ffffff;stroke-width:3.12497592;stroke-miterlimit:4;stroke-dasharray:none;stroke-dashoffset:0"
             id="path5677"
             sodipodi:type="arc"
             sodipodi:cx="-414.5267"
             sodipodi:cy="947.98193"
             sodipodi:rx="23.34329"
             sodipodi:ry="23.34329"
             sodipodi:start="0.62048656"
             sodipodi:end="5.4977871"
             d="m -395.5347,961.55445 a 23.34329,23.34329 0 0 1 -25.19624,8.93119 23.34329,23.34329 0 0 1 -17.05974,-20.5811 23.34329,23.34329 0 0 1 13.44959,-23.10248 23.34329,23.34329 0 0 1 26.32059,4.67367"
             transform="matrix(0.9971916,0.07489267,-0.07489267,0.9971916,0,0)"
             sodipodi:open="true" />
          <circle
             style="fill:#ffffff;fill-opacity:1;stroke:none;stroke-width:1;stroke-miterlimit:4;stroke-dasharray:none;stroke-dashoffset:0"
             id="circle5679"
             cx="-461.1106"
             cy="914.5354"
             r="4.340466" />
          <circle
             r="1.9688325"
             cy="923.88251"
             cx="-494.68411"
             id="circle5681"
             style="fill:#ffffff;fill-opacity:1;stroke:none;stroke-width:1;stroke-miterlimit:4;stroke-dasharray:none;stroke-dashoffset:0" />
          <path
             style="fill:none;fill-opacity:1;stroke:#ffffff;stroke-width:1.9531101;stroke-miterlimit:4;stroke-dasharray:none;stroke-dashoffset:0"
             id="path5683"
             sodipodi:type="arc"
             sodipodi:cx="1035.1633"
             sodipodi:cy="34.393715"
             sodipodi:rx="12.653417"
             sodipodi:ry="12.653417"
             sodipodi:start="0"
             sodipodi:end="2.443461"
             d="m 1047.8167,34.393715 a 12.653417,12.653417 0 0 1 -8.3256,11.890322 12.653417,12.653417 0 0 1 -14.0208,-3.756863"
             sodipodi:open="true"
             transform="matrix(-0.49775688,0.8673166,0.8673166,0.49775688,0,0)" />
          <circle
             style="fill:#ffffff;fill-opacity:1;stroke:none;stroke-width:1;stroke-miterlimit:4;stroke-dasharray:none;stroke-dashoffset:0"
             id="circle5685"
             cx="-475.26242"
             cy="907.66962"
             r="1.9688325" />
        </g>
      </g>
      <g
         style="font-style:normal;font-weight:normal;font-size:107.24385834px;line-height:125%;font-family:sans-serif;letter-spacing:0px;word-spacing:0px;fill:#ffffff;fill-opacity:1;stroke:none;stroke-width:1px;stroke-linecap:butt;stroke-linejoin:miter;stroke-opacity:1"
         id="text5687">
        <path
           id="path4164"
           style="font-style:normal;font-variant:normal;font-weight:normal;font-stretch:normal;font-family:'Poiret One';-inkscape-font-specification:'Poiret One';fill:#ffffff"
           d="m -2217.7651,719.74496 3.4318,0 0,11.15336 q 2.1449,-5.25494 6.2202,-8.25777 4.1825,-3.00283 9.4374,-3.00283 3.3246,0 6.7564,1.39417 l 0,3.96802 q -3.1101,-2.35936 -6.9709,-2.35936 -3.8608,0 -7.507,2.35936 -3.5391,2.35937 -5.7912,6.32739 -2.1449,3.96802 -2.1449,8.47226 l 0,28.20514 -3.4318,0 0,-48.25974 z m -8.9163,48.9032 q -7.9361,0 -13.191,-4.82597 -5.1477,-4.82597 -5.1477,-13.29824 l 0,-50.19012 3.4318,0 0,19.41113 14.7996,0 0,3.00283 -14.7996,0 0,27.77616 q 0,7.0781 4.1825,11.15336 4.2898,3.96802 10.7244,3.96802 l 0,3.00283 z m -42.8607,0.53622 q -5.1477,0 -9.1157,-1.7159 -3.968,-1.82315 -5.6839,-4.61149 l 0,-5.68392 q 2.0376,4.61149 5.5766,6.86361 3.5391,2.14487 9.0085,2.14487 5.255,0 8.4723,-3.21731 3.2173,-3.32456 3.2173,-8.47227 0,-4.39699 -1.8231,-6.75636 -1.8232,-2.46661 -5.8985,-4.93322 l -4.0752,-2.35936 q -4.397,-2.6811 -6.6491,-4.18251 -2.1449,-1.60866 -3.4318,-3.53905 -1.287,-2.03763 -1.287,-4.71873 0,-4.28975 3.0029,-6.86361 3.0028,-2.57385 7.8288,-2.57385 5.8984,0 9.8664,2.6811 l 0,4.71873 q -3.3246,-4.397 -9.5447,-4.397 -3.4318,0 -5.5767,1.7159 -2.1449,1.7159 -2.1449,4.397 0,2.35936 1.287,4.18251 1.2869,1.7159 3.539,3.21732 2.3594,1.50141 7.7216,4.50424 5.4694,3.11007 8.0433,6.43463 2.5738,3.21731 2.5738,8.47226 0,6.64912 -4.397,10.72439 -4.2897,3.96802 -10.5099,3.96802 z" />
      </g>
      <g
         style="font-style:normal;font-weight:normal;font-size:107.24385834px;line-height:125%;font-family:sans-serif;letter-spacing:0px;word-spacing:0px;fill:#ffffff;fill-opacity:1;stroke:none;stroke-width:1px;stroke-linecap:butt;stroke-linejoin:miter;stroke-opacity:1"
         id="text5705">
        <path
           id="path4173"
           style="font-style:normal;font-variant:normal;font-weight:normal;font-stretch:normal;font-family:'Poiret One';-inkscape-font-specification:'Poiret One';fill:#ffffff"
           d="m -2017.1604,769.39887 q -6.9709,0 -12.8693,-3.32456 -5.7912,-3.32456 -9.223,-9.11573 -3.4318,-5.79117 -3.4318,-13.08375 0,-6.75636 3.4318,-12.44029 3.4318,-5.79116 9.3303,-9.22297 6.0056,-3.4318 13.191,-3.4318 6.0056,0 10.2954,1.93039 4.2897,1.93039 8.365,6.00565 l 0,5.79117 q -3.5391,-5.25495 -7.9361,-7.93604 -4.2897,-2.78834 -10.7243,-2.78834 -5.8985,0 -11.1534,3.11007 -5.1477,3.00283 -8.2578,8.15053 -3.1101,5.14771 -3.1101,11.04612 0,6.43463 3.0029,11.58234 3.0028,5.04046 8.0433,7.93604 5.1477,2.78834 11.0461,2.78834 12.0113,0 19.0894,-10.83163 l 0,5.79117 q -3.8608,4.07527 -8.5795,6.1129 -4.6115,1.93039 -10.5099,1.93039 z m -30.5796,-0.42898 q -5.0405,0 -9.223,-2.25212 -4.1825,-2.35936 -6.6491,-6.54187 -2.4666,-4.18251 -2.4666,-9.33022 l 0,-63.27387 3.4318,0 0,63.27387 q 0,4.28976 1.9304,7.72156 2.0376,3.4318 5.4694,5.46944 3.4318,1.93039 7.5071,1.93039 l 0,3.00282 z m -57.1844,0.21449 q -6.8636,0 -12.7621,-3.4318 -5.8984,-3.4318 -9.3302,-9.22297 -3.4318,-5.89842 -3.4318,-12.65478 0,-6.75636 3.4318,-12.54753 3.4318,-5.89841 9.3302,-9.33022 5.8985,-3.4318 12.7621,-3.4318 6.9708,0 13.191,3.75354 6.2201,3.64629 8.6867,9.5447 l 0,-12.11856 3.4318,0 0,48.25974 -3.4318,0 0,-12.01131 q -2.8956,6.00565 -9.0085,9.65194 -6.0056,3.53905 -12.8692,3.53905 z m 0.2144,-3.00283 q 5.8985,0 10.9389,-3.00282 5.0405,-3.11008 7.9361,-8.15054 3.0028,-5.1477 3.0028,-11.15336 0,-5.89841 -3.0028,-11.04612 -3.0029,-5.1477 -8.0433,-8.15053 -5.0405,-3.11007 -10.9389,-3.11007 -5.8984,0 -11.0461,3.11007 -5.0405,3.11007 -8.1505,8.25778 -3.0029,5.1477 -3.0029,11.04612 0,5.89841 3.0029,11.04611 3.11,5.04046 8.2577,8.15054 5.1477,3.00282 11.0461,3.00282 z" />
      </g>
      <g
         transform="translate(-4,0)"
         id="g5735">
        <path
           style="fill:none;fill-opacity:1;stroke:#ffffff;stroke-width:2.84010196;stroke-miterlimit:4;stroke-dasharray:none;stroke-dashoffset:0"
           id="path5691"
           sodipodi:type="arc"
           sodipodi:cx="917.25305"
           sodipodi:cy="2250.0588"
           sodipodi:rx="28.287077"
           sodipodi:ry="28.287077"
           sodipodi:start="0.62048656"
           sodipodi:end="5.4977871"
           d="m 940.26729,2266.5058 a 28.287077,28.287077 0 0 1 -30.53244,10.8227 28.287077,28.287077 0 0 1 -20.67277,-24.9399 28.287077,28.287077 0 0 1 16.29804,-27.9952 28.287077,28.287077 0 0 1 31.89491,5.6635"
           transform="matrix(-0.07489267,0.9971916,-0.9971916,-0.07489267,0,0)"
           sodipodi:open="true" />
        <g
           transform="matrix(1.0178035,0,0,1.0178035,-1626.4701,-81.230178)"
           id="g5693">
          <path
             id="path5695"
             d="m -673.86929,789.03635 c 0,0 0.025,0.17098 0.0662,0.49211 0.0358,0.32065 0.11099,0.79145 0.16466,1.3906 0.10196,1.19736 0.31508,2.90908 0.45114,4.9623 0.0627,1.02685 0.13253,2.13942 0.20228,3.31546 0.0519,1.17652 0.10561,2.41745 0.16119,3.70006 0.0358,1.28356 0.0698,2.60974 0.10561,3.95724 0.0139,1.3475 0.0287,2.71631 0.0412,4.08512 -0.0139,1.36976 -0.0287,2.73858 -0.0412,4.08513 0,1.34844 -0.0698,2.67415 -0.10196,3.95677 -0.0841,2.56711 -0.20946,4.96277 -0.3634,7.01552 -0.13253,2.05369 -0.3491,3.76447 -0.45472,4.96324 -0.0483,0.59915 -0.12888,1.06947 -0.16466,1.39013 -0.0412,0.32113 -0.0662,0.49211 -0.0662,0.49211 0,0 -0.0215,-0.17098 -0.0627,-0.49211 -0.0375,-0.32066 -0.11812,-0.79098 -0.16831,-1.39013 -0.10214,-1.19735 -0.31867,-2.91003 -0.45472,-4.96324 -0.15042,-2.0537 -0.27927,-4.44935 -0.36341,-7.01552 -0.0323,-1.28309 -0.10213,-2.61022 -0.10213,-3.95677 -0.0179,-1.3475 -0.0323,-2.71537 -0.0375,-4.08513 0.0139,-1.36881 0.0287,-2.73762 0.0375,-4.08512 0.0377,-1.34797 0.0698,-2.67416 0.10561,-3.95724 0.0554,-1.28308 0.10925,-2.52354 0.16119,-3.70006 0.0735,-1.17604 0.13965,-2.28861 0.20228,-3.31546 0.13601,-2.05322 0.34909,-3.76447 0.45114,-4.9623 0.0483,-0.59915 0.12888,-1.06995 0.16831,-1.3906 0.0412,-0.32065 0.0627,-0.49211 0.0627,-0.49211 z"
             inkscape:connector-curvature="0"
             style="fill:#ffffff" />
          <path
             id="path5697"
             d="m -703.94032,810.04753 c 0,0 0.23467,0.0309 0.6754,0.0854 0.44007,0.0498 1.08624,0.15426 1.90854,0.22058 1.64398,0.13776 3.99261,0.42005 6.81054,0.59805 1.40931,0.0831 2.93627,0.17315 4.55034,0.27052 1.61408,0.0666 3.31784,0.14231 5.07818,0.21368 1.76161,0.0451 3.58175,0.0878 5.43049,0.13761 1.85004,0.0185 3.72803,0.0403 5.6073,0.0522 1.87928,-0.0161 3.75792,-0.0357 5.6073,-0.0522 1.84876,0 3.67017,-0.0925 5.4305,-0.13534 3.52326,-0.10914 6.81055,-0.28004 9.62851,-0.48175 2.81859,-0.17798 5.16721,-0.46513 6.81183,-0.60041 0.82169,-0.0666 1.46783,-0.17315 1.90725,-0.22312 0.44073,-0.0569 0.6754,-0.0854 0.6754,-0.0854 0,0 -0.23467,-0.0309 -0.6754,-0.0854 -0.43942,-0.0498 -1.08556,-0.15427 -1.90725,-0.22082 -1.64396,-0.13761 -3.99453,-0.4248 -6.81183,-0.60041 -2.8186,-0.204 -6.10654,-0.37259 -9.62851,-0.48411 -1.76098,-0.0403 -3.58174,-0.13292 -5.4305,-0.13534 -1.85002,-0.0161 -3.72802,-0.0357 -5.6073,-0.0522 -1.87927,0.0185 -3.75726,0.038 -5.6073,0.0546 -1.84939,0.0474 -3.66952,0.0925 -5.43049,0.13776 -1.76099,0.0734 -3.4641,0.14488 -5.07818,0.21368 -1.61407,0.0949 -3.14103,0.18512 -4.55034,0.27053 -2.81793,0.17798 -5.16656,0.46039 -6.81054,0.59804 -0.8223,0.064 -1.46781,0.17086 -1.90854,0.21829 -0.44073,0.0545 -0.6754,0.0854 -0.6754,0.0854 z"
             inkscape:connector-curvature="0"
             style="fill:#ffffff" />
          <circle
             r="5.2597165"
             cy="674.28387"
             cx="809.69202"
             id="circle5699"
             style="fill:#ffffff;fill-opacity:1;stroke:none;stroke-width:1;stroke-miterlimit:4;stroke-dasharray:none;stroke-dashoffset:0"
             transform="matrix(0,1,-1,0,0,0)" />
          <path
             style="fill:#ffffff"
             inkscape:connector-curvature="0"
             d="m -662.92674,800.39901 c 0,0 -0.0729,0.0943 -0.21276,0.26864 -0.14231,0.17151 -0.33994,0.43423 -0.61244,0.74834 -0.54724,0.62519 -1.29589,1.55136 -2.25364,2.60477 -0.48166,0.52426 -1.00258,1.09319 -1.55525,1.69263 -0.56182,0.59107 -1.15492,1.21401 -1.76791,1.8579 -0.62334,0.63484 -1.26887,1.28931 -1.92415,1.95492 -0.66622,0.65506 -1.34265,1.32081 -2.02021,1.98545 -0.69124,0.6524 -1.38245,1.3039 -2.06139,1.94581 -0.67363,0.64882 -1.37078,1.25312 -2.02761,1.85481 -1.32446,1.19474 -2.58388,2.28714 -3.68628,3.20078 -1.09216,0.9244 -2.055,1.64337 -2.70663,2.16936 -0.32345,0.26505 -0.59867,0.45258 -0.77673,0.58966 -0.18101,0.13469 -0.27891,0.20493 -0.27891,0.20493 0,0 0.0747,-0.0926 0.21452,-0.26696 0.14145,-0.17233 0.33613,-0.43743 0.61037,-0.74987 0.54714,-0.62527 1.29457,-1.55355 2.25232,-2.60695 0.95082,-1.06055 2.08324,-2.27526 3.32318,-3.5505 0.62486,-0.63292 1.25297,-1.30509 1.92566,-1.95301 0.66423,-0.65699 1.34038,-1.32209 2.02207,-1.98368 0.69076,-0.65194 1.38196,-1.30344 2.05953,-1.94759 0.69224,-0.63045 1.3708,-1.25313 2.02967,-1.85327 0.66867,-0.59072 1.31526,-1.16168 1.92896,-1.70279 0.62423,-0.53051 1.21309,-1.03401 1.75735,-1.49797 1.09367,-0.92249 2.05501,-1.64337 2.70439,-2.17062 0.32344,-0.26505 0.5989,-0.45281 0.77878,-0.58813 0.18077,-0.13446 0.27716,-0.20661 0.27716,-0.20661 z"
             id="path5701" />
          <path
             id="path5703"
             d="m -681.60588,798.03051 c 0,0 0.0757,0.0922 0.21434,0.26748 0.13518,0.17678 0.34749,0.42864 0.59198,0.76346 0.48535,0.67093 1.2204,1.60715 2.02895,2.77084 0.40109,0.58379 0.83683,1.21568 1.29494,1.885 0.44736,0.67567 0.91858,1.38869 1.40566,2.12563 0.47532,0.74424 0.9646,1.51419 1.46251,2.2961 0.48451,0.78937 0.97709,1.59098 1.46827,2.39337 0.47536,0.81195 0.94983,1.62364 1.41786,2.42142 0.47632,0.79465 0.90192,1.59964 1.33533,2.36645 0.85538,1.54143 1.62494,2.99586 2.25588,4.25794 0.64437,1.25535 1.11619,2.3372 1.47504,3.07959 0.1821,0.36952 0.29892,0.6741 0.39032,0.87524 0.0882,0.20325 0.13333,0.31252 0.13333,0.31252 0,0 -0.0736,-0.0934 -0.21221,-0.26867 -0.13621,-0.17621 -0.35168,-0.42594 -0.59403,-0.76194 -0.48546,-0.67086 -1.22294,-1.60649 -2.03148,-2.77017 -0.8175,-1.15908 -1.74259,-2.52702 -2.70057,-4.01065 -0.47301,-0.74514 -0.98454,-1.50348 -1.46021,-2.29701 -0.48695,-0.78801 -0.97896,-1.5892 -1.46601,-2.39465 -0.47502,-0.81137 -0.9495,-1.62305 -1.42011,-2.42014 -0.45311,-0.8072 -0.90194,-1.59966 -1.33328,-2.36797 -0.41934,-0.77498 -0.82459,-1.52431 -1.20842,-2.23532 -0.37045,-0.71805 -0.723,-1.39621 -1.04741,-2.02264 -0.64208,-1.25625 -1.1162,-2.33721 -1.47689,-3.07782 -0.1821,-0.36952 -0.29911,-0.67438 -0.38826,-0.87676 -0.088,-0.20298 -0.13547,-0.31133 -0.13547,-0.31133 z"
             inkscape:connector-curvature="0"
             style="fill:#ffffff" />
        </g>
        <g
           id="g5709"
           transform="translate(-1632.9117,-64.649763)">
          <circle
             r="18.668417"
             cy="738.15131"
             cx="-755.14069"
             style="fill:none;fill-opacity:1;stroke:#ffffff;stroke-width:0.93699998;stroke-miterlimit:4;stroke-dasharray:0.937, 0.937;stroke-dashoffset:0"
             id="circle5711"
             transform="matrix(-0.07489267,-0.9971916,-0.9971916,0.07489267,0,0)" />
        </g>
      </g>
    </g>
  </g>
</svg>
