<?xml version="1.0" encoding="UTF-8" standalone="no"?>
<!-- Created with Inkscape (http://www.inkscape.org/) -->

<svg
   xmlns:dc="http://purl.org/dc/elements/1.1/"
   xmlns:cc="http://creativecommons.org/ns#"
   xmlns:rdf="http://www.w3.org/1999/02/22-rdf-syntax-ns#"
   xmlns:svg="http://www.w3.org/2000/svg"
   xmlns="http://www.w3.org/2000/svg"
   xmlns:sodipodi="http://sodipodi.sourceforge.net/DTD/sodipodi-0.dtd"
   xmlns:inkscape="http://www.inkscape.org/namespaces/inkscape"
   width="136"
   height="117"
   viewBox="0 0 136 117"
   id="svg8239"
   version="1.1"
   inkscape:version="0.91 r13725"
   sodipodi:docname="a-style.svg">
  <defs
     id="defs8241" />
  <sodipodi:namedview
     id="base"
     pagecolor="#ffffff"
     bordercolor="#666666"
     borderopacity="1.0"
     inkscape:pageopacity="0.0"
     inkscape:pageshadow="2"
     inkscape:zoom="0.98994949"
     inkscape:cx="128.68407"
     inkscape:cy="99.284353"
     inkscape:document-units="px"
     inkscape:current-layer="layer1"
     showgrid="false"
     inkscape:window-width="1024"
     inkscape:window-height="739"
     inkscape:window-x="0"
     inkscape:window-y="0"
     inkscape:window-maximized="1"
     units="px" />
  <metadata
     id="metadata8244">
    <rdf:RDF>
      <cc:Work
         rdf:about="">
        <dc:format>image/svg+xml</dc:format>
        <dc:type
           rdf:resource="http://purl.org/dc/dcmitype/StillImage" />
        <dc:title></dc:title>
      </cc:Work>
    </rdf:RDF>
  </metadata>
  <g
     inkscape:label="Camada 1"
     inkscape:groupmode="layer"
     id="layer1"
     transform="translate(0,-935.36216)">
    <g
       id="g5735"
       transform="matrix(2.2191243,0,0,2.2267987,5199.2818,-659.98423)">
      <path
         sodipodi:open="true"
         transform="matrix(-0.07489267,0.9971916,-0.9971916,-0.07489267,0,0)"
         d="m 940.26729,2266.5058 a 28.287077,28.287077 0 0 1 -30.53244,10.8227 28.287077,28.287077 0 0 1 -20.67277,-24.9399 28.287077,28.287077 0 0 1 16.29804,-27.9952 28.287077,28.287077 0 0 1 31.89491,5.6635"
         sodipodi:end="5.4977871"
         sodipodi:start="0.62048656"
         sodipodi:ry="28.287077"
         sodipodi:rx="28.287077"
         sodipodi:cy="2250.0588"
         sodipodi:cx="917.25305"
         sodipodi:type="arc"
         id="path5691"
         style="fill:none;fill-opacity:1;stroke:#1a1a1a;stroke-width:2.84010196;stroke-miterlimit:4;stroke-dasharray:none;stroke-dashoffset:0" />
      <g
         id="g5693"
         transform="matrix(1.0178035,0,0,1.0178035,-1626.4701,-81.230178)"
         style="fill:#1a1a1a">
        <path
           style="fill:#1a1a1a"
           inkscape:connector-curvature="0"
           d="m -673.86929,789.03635 c 0,0 0.025,0.17098 0.0662,0.49211 0.0358,0.32065 0.11099,0.79145 0.16466,1.3906 0.10196,1.19736 0.31508,2.90908 0.45114,4.9623 0.0627,1.02685 0.13253,2.13942 0.20228,3.31546 0.0519,1.17652 0.10561,2.41745 0.16119,3.70006 0.0358,1.28356 0.0698,2.60974 0.10561,3.95724 0.0139,1.3475 0.0287,2.71631 0.0412,4.08512 -0.0139,1.36976 -0.0287,2.73858 -0.0412,4.08513 0,1.34844 -0.0698,2.67415 -0.10196,3.95677 -0.0841,2.56711 -0.20946,4.96277 -0.3634,7.01552 -0.13253,2.05369 -0.3491,3.76447 -0.45472,4.96324 -0.0483,0.59915 -0.12888,1.06947 -0.16466,1.39013 -0.0412,0.32113 -0.0662,0.49211 -0.0662,0.49211 0,0 -0.0215,-0.17098 -0.0627,-0.49211 -0.0375,-0.32066 -0.11812,-0.79098 -0.16831,-1.39013 -0.10214,-1.19735 -0.31867,-2.91003 -0.45472,-4.96324 -0.15042,-2.0537 -0.27927,-4.44935 -0.36341,-7.01552 -0.0323,-1.28309 -0.10213,-2.61022 -0.10213,-3.95677 -0.0179,-1.3475 -0.0323,-2.71537 -0.0375,-4.08513 0.0139,-1.36881 0.0287,-2.73762 0.0375,-4.08512 0.0377,-1.34797 0.0698,-2.67416 0.10561,-3.95724 0.0554,-1.28308 0.10925,-2.52354 0.16119,-3.70006 0.0735,-1.17604 0.13965,-2.28861 0.20228,-3.31546 0.13601,-2.05322 0.34909,-3.76447 0.45114,-4.9623 0.0483,-0.59915 0.12888,-1.06995 0.16831,-1.3906 0.0412,-0.32065 0.0627,-0.49211 0.0627,-0.49211 z"
           id="path5695" />
        <path
           style="fill:#1a1a1a"
           inkscape:connector-curvature="0"
           d="m -703.94032,810.04753 c 0,0 0.23467,0.0309 0.6754,0.0854 0.44007,0.0498 1.08624,0.15426 1.90854,0.22058 1.64398,0.13776 3.99261,0.42005 6.81054,0.59805 1.40931,0.0831 2.93627,0.17315 4.55034,0.27052 1.61408,0.0666 3.31784,0.14231 5.07818,0.21368 1.76161,0.0451 3.58175,0.0878 5.43049,0.13761 1.85004,0.0185 3.72803,0.0403 5.6073,0.0522 1.87928,-0.0161 3.75792,-0.0357 5.6073,-0.0522 1.84876,0 3.67017,-0.0925 5.4305,-0.13534 3.52326,-0.10914 6.81055,-0.28004 9.62851,-0.48175 2.81859,-0.17798 5.16721,-0.46513 6.81183,-0.60041 0.82169,-0.0666 1.46783,-0.17315 1.90725,-0.22312 0.44073,-0.0569 0.6754,-0.0854 0.6754,-0.0854 0,0 -0.23467,-0.0309 -0.6754,-0.0854 -0.43942,-0.0498 -1.08556,-0.15427 -1.90725,-0.22082 -1.64396,-0.13761 -3.99453,-0.4248 -6.81183,-0.60041 -2.8186,-0.204 -6.10654,-0.37259 -9.62851,-0.48411 -1.76098,-0.0403 -3.58174,-0.13292 -5.4305,-0.13534 -1.85002,-0.0161 -3.72802,-0.0357 -5.6073,-0.0522 -1.87927,0.0185 -3.75726,0.038 -5.6073,0.0546 -1.84939,0.0474 -3.66952,0.0925 -5.43049,0.13776 -1.76099,0.0734 -3.4641,0.14488 -5.07818,0.21368 -1.61407,0.0949 -3.14103,0.18512 -4.55034,0.27053 -2.81793,0.17798 -5.16656,0.46039 -6.81054,0.59804 -0.8223,0.064 -1.46781,0.17086 -1.90854,0.21829 -0.44073,0.0545 -0.6754,0.0854 -0.6754,0.0854 z"
           id="path5697" />
        <circle
           transform="matrix(0,1,-1,0,0,0)"
           style="fill:#1a1a1a;fill-opacity:1;stroke:none;stroke-width:1;stroke-miterlimit:4;stroke-dasharray:none;stroke-dashoffset:0"
           id="circle5699"
           cx="809.69202"
           cy="674.28387"
           r="5.2597165" />
        <path
           id="path5701"
           d="m -662.92674,800.39901 c 0,0 -0.0729,0.0943 -0.21276,0.26864 -0.14231,0.17151 -0.33994,0.43423 -0.61244,0.74834 -0.54724,0.62519 -1.29589,1.55136 -2.25364,2.60477 -0.48166,0.52426 -1.00258,1.09319 -1.55525,1.69263 -0.56182,0.59107 -1.15492,1.21401 -1.76791,1.8579 -0.62334,0.63484 -1.26887,1.28931 -1.92415,1.95492 -0.66622,0.65506 -1.34265,1.32081 -2.02021,1.98545 -0.69124,0.6524 -1.38245,1.3039 -2.06139,1.94581 -0.67363,0.64882 -1.37078,1.25312 -2.02761,1.85481 -1.32446,1.19474 -2.58388,2.28714 -3.68628,3.20078 -1.09216,0.9244 -2.055,1.64337 -2.70663,2.16936 -0.32345,0.26505 -0.59867,0.45258 -0.77673,0.58966 -0.18101,0.13469 -0.27891,0.20493 -0.27891,0.20493 0,0 0.0747,-0.0926 0.21452,-0.26696 0.14145,-0.17233 0.33613,-0.43743 0.61037,-0.74987 0.54714,-0.62527 1.29457,-1.55355 2.25232,-2.60695 0.95082,-1.06055 2.08324,-2.27526 3.32318,-3.5505 0.62486,-0.63292 1.25297,-1.30509 1.92566,-1.95301 0.66423,-0.65699 1.34038,-1.32209 2.02207,-1.98368 0.69076,-0.65194 1.38196,-1.30344 2.05953,-1.94759 0.69224,-0.63045 1.3708,-1.25313 2.02967,-1.85327 0.66867,-0.59072 1.31526,-1.16168 1.92896,-1.70279 0.62423,-0.53051 1.21309,-1.03401 1.75735,-1.49797 1.09367,-0.92249 2.05501,-1.64337 2.70439,-2.17062 0.32344,-0.26505 0.5989,-0.45281 0.77878,-0.58813 0.18077,-0.13446 0.27716,-0.20661 0.27716,-0.20661 z"
           inkscape:connector-curvature="0"
           style="fill:#1a1a1a" />
        <path
           style="fill:#1a1a1a"
           inkscape:connector-curvature="0"
           d="m -681.60588,798.03051 c 0,0 0.0757,0.0922 0.21434,0.26748 0.13518,0.17678 0.34749,0.42864 0.59198,0.76346 0.48535,0.67093 1.2204,1.60715 2.02895,2.77084 0.40109,0.58379 0.83683,1.21568 1.29494,1.885 0.44736,0.67567 0.91858,1.38869 1.40566,2.12563 0.47532,0.74424 0.9646,1.51419 1.46251,2.2961 0.48451,0.78937 0.97709,1.59098 1.46827,2.39337 0.47536,0.81195 0.94983,1.62364 1.41786,2.42142 0.47632,0.79465 0.90192,1.59964 1.33533,2.36645 0.85538,1.54143 1.62494,2.99586 2.25588,4.25794 0.64437,1.25535 1.11619,2.3372 1.47504,3.07959 0.1821,0.36952 0.29892,0.6741 0.39032,0.87524 0.0882,0.20325 0.13333,0.31252 0.13333,0.31252 0,0 -0.0736,-0.0934 -0.21221,-0.26867 -0.13621,-0.17621 -0.35168,-0.42594 -0.59403,-0.76194 -0.48546,-0.67086 -1.22294,-1.60649 -2.03148,-2.77017 -0.8175,-1.15908 -1.74259,-2.52702 -2.70057,-4.01065 -0.47301,-0.74514 -0.98454,-1.50348 -1.46021,-2.29701 -0.48695,-0.78801 -0.97896,-1.5892 -1.46601,-2.39465 -0.47502,-0.81137 -0.9495,-1.62305 -1.42011,-2.42014 -0.45311,-0.8072 -0.90194,-1.59966 -1.33328,-2.36797 -0.41934,-0.77498 -0.82459,-1.52431 -1.20842,-2.23532 -0.37045,-0.71805 -0.723,-1.39621 -1.04741,-2.02264 -0.64208,-1.25625 -1.1162,-2.33721 -1.47689,-3.07782 -0.1821,-0.36952 -0.29911,-0.67438 -0.38826,-0.87676 -0.088,-0.20298 -0.13547,-0.31133 -0.13547,-0.31133 z"
           id="path5703" />
      </g>
      <g
         transform="translate(-1632.9117,-64.649763)"
         id="g5709"
         style="stroke:#1a1a1a">
        <circle
           transform="matrix(-0.07489267,-0.9971916,-0.9971916,0.07489267,0,0)"
           id="circle5711"
           style="fill:none;fill-opacity:1;stroke:#1a1a1a;stroke-width:0.93699998;stroke-miterlimit:4;stroke-dasharray:0.937, 0.937;stroke-dashoffset:0"
           cx="-755.14069"
           cy="738.15131"
           r="18.668417" />
      </g>
    </g>
  </g>
</svg>
