<?xml version="1.0" encoding="UTF-8" standalone="no"?>
<!-- Created with Inkscape (http://www.inkscape.org/) -->

<svg
   xmlns:dc="http://purl.org/dc/elements/1.1/"
   xmlns:cc="http://creativecommons.org/ns#"
   xmlns:rdf="http://www.w3.org/1999/02/22-rdf-syntax-ns#"
   xmlns:svg="http://www.w3.org/2000/svg"
   xmlns="http://www.w3.org/2000/svg"
   xmlns:sodipodi="http://sodipodi.sourceforge.net/DTD/sodipodi-0.dtd"
   xmlns:inkscape="http://www.inkscape.org/namespaces/inkscape"
   width="500"
   height="500"
   viewBox="0 0 500.00001 500.00001"
   id="svg18269"
   version="1.1"
   inkscape:version="0.91 r13725"
   sodipodi:docname="distances.svg">
  <defs
     id="defs18271">
    <marker
       inkscape:isstock="true"
       style="overflow:visible"
       id="marker7445"
       refX="0.0"
       refY="0.0"
       orient="auto"
       inkscape:stockid="StopL">
      <path
         transform="scale(0.8)"
         style="fill:none;fill-opacity:0.75;fill-rule:evenodd;stroke:#2a7fff;stroke-width:1pt;stroke-opacity:1"
         d="M 0.0,5.65 L 0.0,-5.65"
         id="path7447" />
    </marker>
    <marker
       inkscape:isstock="true"
       style="overflow:visible"
       id="marker7405"
       refX="0.0"
       refY="0.0"
       orient="auto"
       inkscape:stockid="StopL">
      <path
         transform="scale(0.8)"
         style="fill:none;fill-opacity:0.75;fill-rule:evenodd;stroke:#2a7fff;stroke-width:1pt;stroke-opacity:1"
         d="M 0.0,5.65 L 0.0,-5.65"
         id="path7407" />
    </marker>
    <marker
       inkscape:isstock="true"
       style="overflow:visible"
       id="marker5465"
       refX="0.0"
       refY="0.0"
       orient="auto"
       inkscape:stockid="StopL">
      <path
         transform="scale(0.8)"
         style="fill:none;fill-opacity:0.75;fill-rule:evenodd;stroke:#f9f9f9;stroke-width:1pt;stroke-opacity:1"
         d="M 0.0,5.65 L 0.0,-5.65"
         id="path5467" />
    </marker>
    <marker
       inkscape:isstock="true"
       style="overflow:visible"
       id="marker5437"
       refX="0.0"
       refY="0.0"
       orient="auto"
       inkscape:stockid="StopL">
      <path
         transform="scale(0.8)"
         style="fill:none;fill-opacity:0.75;fill-rule:evenodd;stroke:#f9f9f9;stroke-width:1pt;stroke-opacity:1"
         d="M 0.0,5.65 L 0.0,-5.65"
         id="path5439" />
    </marker>
    <marker
       inkscape:stockid="StopL"
       orient="auto"
       refY="0.0"
       refX="0.0"
       id="marker4472"
       style="overflow:visible"
       inkscape:isstock="true"
       inkscape:collect="always">
      <path
         id="path4385"
         d="M 0.0,5.65 L 0.0,-5.65"
         style="fill:none;fill-opacity:0.75;fill-rule:evenodd;stroke:#7f2aff;stroke-width:1pt;stroke-opacity:1"
         transform="scale(0.8)" />
    </marker>
    <marker
       inkscape:stockid="StopL"
       orient="auto"
       refY="0"
       refX="0"
       id="StopL"
       style="overflow:visible"
       inkscape:isstock="true">
      <path
         id="path9103"
         d="M 0,5.65 0,-5.65"
         style="fill:#f9f9f9;fill-opacity:1;fill-rule:evenodd;stroke:#f9f9f9;stroke-width:1pt;stroke-opacity:1"
         transform="scale(0.8,0.8)"
         inkscape:connector-curvature="0" />
    </marker>
  </defs>
  <sodipodi:namedview
     id="base"
     pagecolor="#ffffff"
     bordercolor="#666666"
     borderopacity="1.0"
     inkscape:pageopacity="0.0"
     inkscape:pageshadow="2"
     inkscape:zoom="0.7"
     inkscape:cx="283.03148"
     inkscape:cy="217.30448"
     inkscape:document-units="px"
     inkscape:current-layer="layer1"
     showgrid="false"
     inkscape:window-width="1024"
     inkscape:window-height="739"
     inkscape:window-x="0"
     inkscape:window-y="0"
     inkscape:window-maximized="1"
     units="px"
     showguides="true"
     inkscape:guide-bbox="true">
    <sodipodi:guide
       position="-11.428572,595.7143"
       orientation="0,1"
       id="guide7863" />
  </sodipodi:namedview>
  <metadata
     id="metadata18274">
    <rdf:RDF>
      <cc:Work
         rdf:about="">
        <dc:format>image/svg+xml</dc:format>
        <dc:type
           rdf:resource="http://purl.org/dc/dcmitype/StillImage" />
        <dc:title />
      </cc:Work>
    </rdf:RDF>
  </metadata>
  <g
     inkscape:label="Camada 1"
     inkscape:groupmode="layer"
     id="layer1"
     transform="translate(0,-552.36216)">
    <circle
       r="250"
       cy="507.5625"
       cx="1382.5547"
       id="circle17019"
       style="fill:none;fill-opacity:1;stroke:none;stroke-width:10;stroke-miterlimit:4;stroke-dasharray:none;stroke-dashoffset:0" />
    <path
       inkscape:connector-curvature="0"
       id="path11690"
       d="M 329.02172,613.92922 57.167595,834.18847"
       style="fill:none;fill-rule:evenodd;stroke:#7f2aff;stroke-width:10;stroke-linecap:butt;stroke-linejoin:miter;stroke-miterlimit:4;stroke-dasharray:none;stroke-opacity:1;marker-start:url(#marker4472);marker-end:url(#marker4472)"
       sodipodi:nodetypes="cc" />
    <g
       id="g4380"
       transform="matrix(0.86345187,0,0,0.86345187,65.206274,184.16147)">
      <path
         transform="translate(0,552.36216)"
         id="path11321"
         d="m 340.71289,19.591797 c -11.93797,-0.14371 -23.98599,1.14384 -35.75781,3.853515 -83.23704,20.901601 -149.47268,86.885728 -168.50977,170.072268 -12.41918,53.59523 3.80509,118.03272 59.60157,138.49414 52.92715,19.3729 107.93764,-8.28428 145.19726,-47.89649 39.70814,-42.61144 66.38968,-118.3234 15.18164,-161.2832 C 318.8688,92.247711 267.1206,111.3078 237.47656,144.63477 212.72738,171.94891 202.72562,208.77184 209.07422,243.92578 189.37285,212.89162 196.65868,176.34759 215.53711,145.5 250.03612,92.39919 321.92374,54.755535 377.22266,97.296875 432.38237,138.47679 419.88333,218.24292 385.51758,272.70312 335.80434,352.14616 226.34943,412.91066 144.01172,348.34375 78.200039,297.2369 87.804364,202.62247 119.41797,134.66992 87.386133,198.53158 72.440572,281.304 125.32031,340.61523 c 23.2295,25.16992 52.01594,37.36917 83.91797,39.61719 113.41623,4.92751 210.65566,-94.51795 214.50586,-205.07226 C 425.43191,137.80874 413.49081,101.85401 381,80.388672 329.40539,47.105842 265.38424,67.422653 224.17578,108.81445 c -43.7895,43.03157 -72.39842,113.43056 -28.5332,165.40235 29.79907,35.50824 79.52147,23.53951 112.44336,-4.61328 34.14723,-29.65373 41.01298,-70.28646 42.37109,-109.89844 4.27504,4.4563 8.90552,14.62291 10.96875,29.13086 -0.0488,76.69886 -75.54717,146.38232 -153.00781,129.51758 -42.41205,-10.81358 -66.09039,-53.83201 -64.82031,-95.27149 3.13155,-63.66481 34.62902,-119.20862 85.79882,-157.48828 47.35767,-35.13506 106.06666,-53.531633 160.91602,-28.845703 88.14182,40.56261 86.0813,155.064613 48.35547,230.521483 29.8572,-58.12981 41.69002,-130.94177 8.02734,-190.841796 C 424.56984,38.885297 383.34849,20.105048 340.71289,19.591797 Z M 287.74414,158.12891 c 4.79294,-0.0756 9.36883,1.08827 13.35742,3.63867 14.18159,9.07118 15.5923,32.206 3.14063,51.68164 -12.44882,19.47571 -34.03724,27.91392 -48.22461,18.8457 -14.18476,-9.06817 -15.58922,-32.20397 -3.14063,-51.67969 8.94754,-13.99594 22.61856,-22.29299 34.86719,-22.48632 z"
         style="fill:#7f2aff;fill-opacity:1;fill-rule:nonzero;stroke:none"
         inkscape:connector-curvature="0" />
      <path
         transform="translate(0,552.36216)"
         id="path4194"
         d="m 291.61914,141.71875 c -17.41629,0.27314 -36.85613,12.06711 -49.57812,31.96875 -17.70025,27.69234 -15.6968,60.59144 4.4707,73.48242 20.16148,12.89392 50.86405,0.89626 68.56445,-26.79297 17.69739,-27.69218 15.70551,-60.59137 -4.46484,-73.48242 -5.67218,-3.62559 -12.17712,-5.28266 -18.99219,-5.17578 z m -3.875,16.41016 c 4.79294,-0.0756 9.36883,1.08827 13.35742,3.63867 14.18159,9.07118 15.5923,32.206 3.14063,51.68164 -12.44882,19.47571 -34.03724,27.91392 -48.22461,18.8457 -14.18476,-9.06817 -15.58922,-32.20397 -3.14063,-51.67969 8.94754,-13.99594 22.61856,-22.29299 34.86719,-22.48632 z"
         style="fill:#672178;fill-opacity:1;fill-rule:nonzero;stroke:none"
         inkscape:connector-curvature="0" />
    </g>
  </g>
</svg>
