<?xml version="1.0" encoding="UTF-8" standalone="no"?>
<!-- Created with Inkscape (http://www.inkscape.org/) -->

<svg
   xmlns:dc="http://purl.org/dc/elements/1.1/"
   xmlns:cc="http://creativecommons.org/ns#"
   xmlns:rdf="http://www.w3.org/1999/02/22-rdf-syntax-ns#"
   xmlns:svg="http://www.w3.org/2000/svg"
   xmlns="http://www.w3.org/2000/svg"
   xmlns:sodipodi="http://sodipodi.sourceforge.net/DTD/sodipodi-0.dtd"
   xmlns:inkscape="http://www.inkscape.org/namespaces/inkscape"
   width="136"
   height="117"
   viewBox="0 0 136 117"
   id="svg8239"
   version="1.1"
   inkscape:version="0.91 r13725"
   sodipodi:docname="galaxy.svg">
  <defs
     id="defs8241" />
  <sodipodi:namedview
     id="base"
     pagecolor="#ffffff"
     bordercolor="#666666"
     borderopacity="1.0"
     inkscape:pageopacity="0.0"
     inkscape:pageshadow="2"
     inkscape:zoom="0.7"
     inkscape:cx="-136.52494"
     inkscape:cy="139.962"
     inkscape:document-units="px"
     inkscape:current-layer="layer1"
     showgrid="false"
     inkscape:window-width="1024"
     inkscape:window-height="739"
     inkscape:window-x="0"
     inkscape:window-y="0"
     inkscape:window-maximized="1"
     units="px" />
  <metadata
     id="metadata8244">
    <rdf:RDF>
      <cc:Work
         rdf:about="">
        <dc:format>image/svg+xml</dc:format>
        <dc:type
           rdf:resource="http://purl.org/dc/dcmitype/StillImage" />
        <dc:title />
      </cc:Work>
    </rdf:RDF>
  </metadata>
  <g
     inkscape:label="Camada 1"
     inkscape:groupmode="layer"
     id="layer1"
     transform="translate(0,-935.36216)">
    <g
       style="fill:#1a1a1a"
       transform="matrix(1.4628624,0,0,1.858334,-5.6526456,900.27515)"
       id="g5803">
      <path
         id="path5805"
         d="M 80.2,47.2 C 77.6,41.9 70.7,38.4 65,37.4 c -3.6,-0.7 -11.3,-1 -17,1.9 -4.6,2.4 -7,5.1 -7.2,8.1 -0.3,3.7 2.9,6.3 3.9,7 0,0 0,0 0,0 0.3,0.2 0.5,0.3 0.8,0.5 0.4,0.2 0.3,0.7 -0.2,0.8 -1.5,0.1 -3.2,-0.1 -5,-0.5 -4.4,-1 -6,-4.7 -6.2,-6.5 -0.5,-4.1 3.4,-14.2 17.9,-17.6 0.9,-0.2 1.5,-1.2 1.3,-2.1 -0.2,-0.9 -1.2,-1.5 -2.1,-1.3 -8.8,2.1 -13.8,6.4 -16.4,9.7 -3,3.7 -4.6,8.2 -4.2,11.7 0.4,3.7 3.4,8.2 8.9,9.5 1.8,0.4 3.4,0.5 4.9,0.6 9.9,0.2 15.4,-7.3 15.1,-10.2 0,-0.4 0,-0.8 -0.1,-1.1 -0.1,-0.3 0.2,-0.6 0.5,-0.5 0.5,0.2 0.9,0.4 1.3,0.7 0.9,0.7 1.4,1.8 1.5,3.2 0.1,2.5 -3.7,6.1 -7.4,8.1 -7.3,4.1 -22.2,7.6 -30.9,2 -0.9,-0.5 -2,-0.3 -2.5,0.7 -0.4,0.8 -0.1,1.8 0.7,2.3 3.9,2.5 8.6,3.4 13.3,3.4 8.5,0 17,-3 21.1,-5.4 C 58,61.9 66.4,57 66.2,51.1 66.1,48.6 65.1,46.6 63.4,45.2 59.3,42 52.5,43.1 51,43.4 c -1.4,0.2 -2.4,0.5 -4.6,1.5 -0.5,0.2 -0.5,-1.1 3.6,-2.8 4.3,-1.8 10.1,-2.1 14.3,-1.4 4.7,0.9 10.6,3.7 12.7,7.9 1.1,2.2 0.9,4.5 -0.4,7.1 -0.4,0.8 -0.2,1.8 0.5,2.3 0.3,0.2 0.7,0.3 1,0.3 0.6,0 1.2,-0.3 1.5,-0.9 2,-3.5 2.2,-7 0.6,-10.2 z M 50.5,47.1 c 2.7,-0.6 5.1,0 5.4,1.4 0.3,1.4 -1.6,3 -4.2,3.6 -2.7,0.6 -5.1,0 -5.4,-1.4 -0.3,-1.4 1.6,-3 4.2,-3.6 z"
         inkscape:connector-curvature="0"
         style="fill:#1a1a1a" />
      <path
         id="path5807"
         d="M 66.2,59.3 C 65.6,58.6 64.5,58.5 63.7,59.1 63.6,59.2 55.2,66.4 39,69.4 30.2,71 18,69.6 10.4,61 9.8,60.3 8.7,60.2 7.9,60.9 c -0.7,0.6 -0.8,1.7 -0.1,2.5 6.6,7.5 16.2,10.1 24.7,10.1 2.5,0 5,-0.2 7.2,-0.6 17.1,-3.1 26,-10.7 26.3,-11.1 0.7,-0.7 0.8,-1.8 0.2,-2.5 z"
         inkscape:connector-curvature="0"
         style="fill:#1a1a1a" />
      <path
         id="path5809"
         d="m 17.8,61 c 0.3,0.2 0.6,0.2 0.9,0.2 0.6,0 1.2,-0.3 1.5,-0.9 0.5,-0.8 0.2,-1.9 -0.6,-2.4 -0.4,-0.2 -9.1,-5.6 -4.1,-16.7 0.4,-0.9 0,-1.9 -0.9,-2.3 -0.9,-0.4 -1.9,0 -2.3,0.9 -6.4,14 5.4,21.1 5.5,21.2 z"
         inkscape:connector-curvature="0"
         style="fill:#1a1a1a" />
      <path
         id="path5811"
         d="M 7.9,58.2 C 7.9,57.7 7.7,57.3 7.4,57 7.1,56.7 6.6,56.5 6.2,56.5 5.7,56.5 5.3,56.7 5,57 c -0.3,0.3 -0.5,0.8 -0.5,1.2 0,0.5 0.2,0.9 0.5,1.2 0.3,0.3 0.8,0.5 1.2,0.5 0.5,0 0.9,-0.2 1.2,-0.5 0.3,-0.3 0.5,-0.7 0.5,-1.2 z"
         inkscape:connector-curvature="0"
         style="fill:#1a1a1a" />
      <path
         id="path5813"
         d="m 15.8,37.8 c 0.5,0 0.9,-0.2 1.2,-0.5 0.3,-0.3 0.5,-0.8 0.5,-1.2 0,-0.5 -0.2,-0.9 -0.5,-1.2 -0.3,-0.3 -0.8,-0.5 -1.2,-0.5 -0.5,0 -0.9,0.2 -1.2,0.5 -0.3,0.3 -0.5,0.8 -0.5,1.2 0,0.5 0.2,0.9 0.5,1.2 0.3,0.3 0.7,0.5 1.2,0.5 z"
         inkscape:connector-curvature="0"
         style="fill:#1a1a1a" />
      <path
         id="path5815"
         d="m 85.2,40.7 c -10,-8 -23.3,-8 -23.9,-8 -1,0 -1.7,0.8 -1.7,1.7 0,1 0.8,1.7 1.7,1.7 0,0 0,0 0,0 0.2,0 12.7,0.1 21.7,7.2 1.3,1.1 3.6,3.4 4,7.2 0.4,4.1 -1.7,8.8 -6.1,13.7 -0.6,0.7 -0.6,1.8 0.1,2.5 0.3,0.3 0.7,0.4 1.2,0.4 0.5,0 1,-0.2 1.3,-0.6 5.1,-5.7 7.5,-11.2 7,-16.3 -0.5,-4.9 -3.6,-8 -5.3,-9.5 z"
         inkscape:connector-curvature="0"
         style="fill:#1a1a1a" />
      <path
         id="path5817"
         d="m 76,60.3 c -0.9,-0.4 -1.9,-0.1 -2.3,0.8 0,0.1 -4.9,9.6 -22.8,14.5 -0.9,0.3 -1.5,1.2 -1.2,2.1 0.2,0.8 0.9,1.3 1.7,1.3 0.2,0 0.3,0 0.5,-0.1 19.6,-5.3 24.8,-15.9 25,-16.4 0.4,-0.8 0,-1.8 -0.9,-2.2 z"
         inkscape:connector-curvature="0"
         style="fill:#1a1a1a" />
      <path
         id="path5819"
         d="m 78.4,67.3 c -0.5,0 -0.9,0.2 -1.2,0.5 -0.3,0.3 -0.5,0.8 -0.5,1.2 0,0.5 0.2,0.9 0.5,1.2 0.3,0.3 0.8,0.5 1.2,0.5 0.5,0 0.9,-0.2 1.2,-0.5 0.3,-0.3 0.5,-0.8 0.5,-1.2 0,-0.5 -0.2,-0.9 -0.5,-1.2 -0.3,-0.3 -0.7,-0.5 -1.2,-0.5 z"
         inkscape:connector-curvature="0"
         style="fill:#1a1a1a" />
      <path
         id="path5821"
         d="m 45.8,77.3 c -0.5,0 -0.9,0.2 -1.2,0.5 -0.3,0.3 -0.5,0.8 -0.5,1.2 0,0.5 0.2,0.9 0.5,1.2 0.3,0.3 0.8,0.5 1.2,0.5 0.5,0 0.9,-0.2 1.2,-0.5 0.3,-0.3 0.5,-0.8 0.5,-1.2 0,-0.5 -0.2,-0.9 -0.5,-1.2 -0.3,-0.3 -0.7,-0.5 -1.2,-0.5 z"
         inkscape:connector-curvature="0"
         style="fill:#1a1a1a" />
      <path
         id="path5823"
         d="m 27.5,55.6 c 0.3,0 0.6,-0.1 0.9,-0.2 0.8,-0.5 1.1,-1.5 0.6,-2.4 -0.2,-0.3 -3.8,-6.8 2.6,-16.4 3.7,-5.6 13.8,-12.2 30.9,-13.8 1,-0.1 1.7,-0.9 1.6,-1.9 C 64,19.9 63.2,19.2 62.2,19.3 44,21.1 33,28.4 28.8,34.7 c -7.6,11.5 -2.9,19.8 -2.7,20.1 0.3,0.5 0.8,0.8 1.4,0.8 z"
         inkscape:connector-curvature="0"
         style="fill:#1a1a1a" />
      <path
         id="path5825"
         d="m 59.3,25.9 c -0.9,0.2 -1.5,1.2 -1.2,2.1 0.2,0.9 1.2,1.5 2.1,1.2 0.1,0 14.9,-3.8 27.4,3.3 0.3,0.2 0.6,0.2 0.9,0.2 0.6,0 1.2,-0.3 1.5,-0.9 0.5,-0.8 0.2,-1.9 -0.7,-2.4 -13.7,-7.7 -29.4,-3.7 -30,-3.5 z"
         inkscape:connector-curvature="0"
         style="fill:#1a1a1a" />
      <path
         id="path5827"
         d="m 68.4,22.7 c 0.5,0 0.9,-0.2 1.2,-0.5 0.3,-0.3 0.5,-0.8 0.5,-1.2 0,-0.5 -0.2,-0.9 -0.5,-1.2 -0.3,-0.3 -0.8,-0.5 -1.2,-0.5 -0.4,0 -0.9,0.2 -1.2,0.5 -0.3,0.3 -0.5,0.8 -0.5,1.2 0,0.5 0.2,0.9 0.5,1.2 0.3,0.3 0.7,0.5 1.2,0.5 z"
         inkscape:connector-curvature="0"
         style="fill:#1a1a1a" />
      <path
         id="path5829"
         d="m 94,31.8 c -0.3,-0.3 -0.8,-0.5 -1.2,-0.5 -0.5,0 -0.9,0.2 -1.2,0.5 -0.4,0.3 -0.6,0.8 -0.6,1.2 0,0.5 0.2,0.9 0.5,1.2 0.3,0.3 0.8,0.5 1.2,0.5 0.5,0 0.9,-0.2 1.2,-0.5 0.3,-0.3 0.5,-0.8 0.5,-1.2 0.1,-0.4 -0.1,-0.9 -0.4,-1.2 z"
         inkscape:connector-curvature="0"
         style="fill:#1a1a1a" />
    </g>
  </g>
</svg>
