<?xml version="1.0" encoding="UTF-8" standalone="no"?>
<!-- Created with Inkscape (http://www.inkscape.org/) -->

<svg
   xmlns:dc="http://purl.org/dc/elements/1.1/"
   xmlns:cc="http://creativecommons.org/ns#"
   xmlns:rdf="http://www.w3.org/1999/02/22-rdf-syntax-ns#"
   xmlns:svg="http://www.w3.org/2000/svg"
   xmlns="http://www.w3.org/2000/svg"
   xmlns:sodipodi="http://sodipodi.sourceforge.net/DTD/sodipodi-0.dtd"
   xmlns:inkscape="http://www.inkscape.org/namespaces/inkscape"
   width="500"
   height="500"
   viewBox="0 0 500.00001 500.00001"
   id="svg18269"
   version="1.1"
   inkscape:version="0.91 r13725"
   sodipodi:docname="gravity.svg">
  <defs
     id="defs18271">
    <marker
       inkscape:stockid="StopL"
       orient="auto"
       refY="0"
       refX="0"
       id="StopL"
       style="overflow:visible"
       inkscape:isstock="true">
      <path
         id="path9103"
         d="M 0,5.65 0,-5.65"
         style="fill:#f9f9f9;fill-opacity:1;fill-rule:evenodd;stroke:#f9f9f9;stroke-width:1pt;stroke-opacity:1"
         transform="scale(0.8,0.8)"
         inkscape:connector-curvature="0" />
    </marker>
  </defs>
  <sodipodi:namedview
     id="base"
     pagecolor="#ffffff"
     bordercolor="#666666"
     borderopacity="1.0"
     inkscape:pageopacity="0.0"
     inkscape:pageshadow="2"
     inkscape:zoom="0.35"
     inkscape:cx="809.00175"
     inkscape:cy="286.19507"
     inkscape:document-units="px"
     inkscape:current-layer="layer1"
     showgrid="false"
     inkscape:window-width="1024"
     inkscape:window-height="739"
     inkscape:window-x="0"
     inkscape:window-y="0"
     inkscape:window-maximized="1"
     units="px" />
  <metadata
     id="metadata18274">
    <rdf:RDF>
      <cc:Work
         rdf:about="">
        <dc:format>image/svg+xml</dc:format>
        <dc:type
           rdf:resource="http://purl.org/dc/dcmitype/StillImage" />
        <dc:title />
      </cc:Work>
    </rdf:RDF>
  </metadata>
  <g
     inkscape:label="Camada 1"
     inkscape:groupmode="layer"
     id="layer1"
     transform="translate(0,-552.36216)">
    <path
       style="fill:#f9f9f9"
       inkscape:connector-curvature="0"
       d="m 273.32504,716.9173 c -9.30516,0.77505 -18.45602,3.41125 -26.26222,7.18479 -3.30791,-17.21527 2.22415,-33.29291 13.75303,-37.37645 4.23916,-1.60245 6.35895,-6.15171 4.7565,-10.39095 -1.60244,-4.23923 -6.15157,-6.35903 -10.39071,-4.75658 -18.81817,6.56473 -28.1764,29.20769 -24.97239,52.67835 -7.65099,-1.86143 -15.1985,-2.48216 -23.26337,-1.81045 -40.32388,3.3586 -70.46487,38.97666 -67.15826,78.68026 0.25645,3.10182 4.02911,78.37307 41.04285,110.27185 12.14838,10.85689 26.88215,15.25178 43.01143,13.90836 11.78712,-0.98176 22.74691,-4.39325 32.82811,-10.85496 10.95979,4.08452 22.38476,6.25627 34.17187,5.27455 71.96252,-5.9938 62.81742,-130.79112 62.35225,-136.37443 -3.92698,-39.65192 -39.54521,-69.79294 -79.86909,-66.43434 z"
       id="path16962"
       sodipodi:nodetypes="sccsccsccscscs" />
    <path
       style="fill:#f9f9f9"
       inkscape:connector-curvature="0"
       d="m 158.04023,711.42912 -3.4618,-41.56467 c -0.20782,-2.4815 -2.89494,-4.75623 -5.37643,-4.54955 -2.4815,0.20649 -4.75605,2.8948 -4.54956,5.37629 l 3.46181,41.56468 c 0.20782,2.48144 2.89492,4.75627 5.37642,4.5496 2.4815,-0.2065 4.80823,-2.27451 4.54956,-5.37635 z"
       id="path16964" />
    <path
       style="fill:#f9f9f9"
       inkscape:connector-curvature="0"
       d="m 340.42804,703.7341 -4.34041,-52.11095 c -0.20783,-2.48145 -2.89448,-4.75628 -5.37598,-4.5496 -2.4815,0.20649 -4.75606,2.89484 -4.54956,5.37634 l 4.34041,52.1109 c 0.20783,2.4815 2.89448,4.75632 5.37598,4.5496 3.10187,-0.25822 4.80824,-2.27442 4.54956,-5.37629 z"
       id="path16966" />
    <path
       style="fill:#f9f9f9"
       inkscape:connector-curvature="0"
       d="m 202.34591,688.37406 -3.82349,-45.90725 c -0.20783,-2.48144 -2.89494,-4.75623 -5.37644,-4.54955 -2.48149,0.20649 -4.75649,2.8948 -4.54956,5.3763 l 3.82351,45.90725 c 0.20782,2.4815 2.89494,4.75627 5.37643,4.5496 2.4815,-0.2065 4.75605,-2.89485 4.54955,-5.37635 z"
       id="path16968" />
    <path
       style="fill:#f9f9f9"
       inkscape:connector-curvature="0"
       d="m 300.26024,686.46554 -4.3917,-52.73131 c -0.20782,-2.48151 -2.89492,-4.75629 -5.37642,-4.54962 -2.4815,0.2065 -4.75649,2.89485 -4.54956,5.37635 l 4.34041,52.11091 c 0.20782,2.48149 2.89448,4.75627 5.37599,4.5496 2.53322,0.41387 4.80823,-2.27451 4.60128,-4.75593 z"
       id="path16970" />
    <path
       style="fill:#f9f9f9"
       inkscape:connector-curvature="0"
       d="m 238.27677,654.77247 -3.1001,-37.2221 c -0.20783,-2.48146 -2.89493,-4.75623 -5.37643,-4.54956 -2.48149,0.2065 -4.75606,2.89484 -4.54956,5.37629 l 3.1001,37.22211 c 0.20783,2.48145 2.89493,4.75628 5.37643,4.5496 3.10187,-0.25823 4.80779,-2.27448 4.54956,-5.37634 z"
       id="path16972" />
  </g>
</svg>
