<?xml version="1.0" encoding="UTF-8" standalone="no"?>
<!-- Created with Inkscape (http://www.inkscape.org/) -->

<svg
   xmlns:dc="http://purl.org/dc/elements/1.1/"
   xmlns:cc="http://creativecommons.org/ns#"
   xmlns:rdf="http://www.w3.org/1999/02/22-rdf-syntax-ns#"
   xmlns:svg="http://www.w3.org/2000/svg"
   xmlns="http://www.w3.org/2000/svg"
   xmlns:sodipodi="http://sodipodi.sourceforge.net/DTD/sodipodi-0.dtd"
   xmlns:inkscape="http://www.inkscape.org/namespaces/inkscape"
   width="500"
   height="500"
   viewBox="0 0 500.00001 500.00001"
   id="svg18269"
   version="1.1"
   inkscape:version="0.91 r13725"
   sodipodi:docname="gravity.svg">
  <defs
     id="defs18271">
    <marker
       inkscape:stockid="StopL"
       orient="auto"
       refY="0"
       refX="0"
       id="StopL"
       style="overflow:visible"
       inkscape:isstock="true">
      <path
         id="path9103"
         d="M 0,5.65 0,-5.65"
         style="fill:#f9f9f9;fill-opacity:1;fill-rule:evenodd;stroke:#f9f9f9;stroke-width:1pt;stroke-opacity:1"
         transform="scale(0.8,0.8)"
         inkscape:connector-curvature="0" />
    </marker>
  </defs>
  <sodipodi:namedview
     id="base"
     pagecolor="#ffffff"
     bordercolor="#666666"
     borderopacity="1.0"
     inkscape:pageopacity="0.0"
     inkscape:pageshadow="2"
     inkscape:zoom="0.35"
     inkscape:cx="623.37781"
     inkscape:cy="286.19507"
     inkscape:document-units="px"
     inkscape:current-layer="layer1"
     showgrid="false"
     inkscape:window-width="1024"
     inkscape:window-height="739"
     inkscape:window-x="0"
     inkscape:window-y="0"
     inkscape:window-maximized="1"
     units="px" />
  <metadata
     id="metadata18274">
    <rdf:RDF>
      <cc:Work
         rdf:about="">
        <dc:format>image/svg+xml</dc:format>
        <dc:type
           rdf:resource="http://purl.org/dc/dcmitype/StillImage" />
        <dc:title />
      </cc:Work>
    </rdf:RDF>
  </metadata>
  <g
     inkscape:label="Camada 1"
     inkscape:groupmode="layer"
     id="layer1"
     transform="translate(0,-552.36216)">
    <g
       id="g8893"
       transform="matrix(6.9921763,0,0,6.9921763,3340.5328,4485.6237)">
      <g
         id="g10238"
         transform="translate(0,1)">
        <path
           inkscape:connector-curvature="0"
           id="path7511"
           d="m -460.50538,-499.57859 c -5.15228,-3.15945 -6.89543,-10.98898 -5.11613,-22.97973 1.56581,-10.55205 4.22953,-14.70522 10.97714,-17.1152 4.54777,-1.6243 8.10253,-1.04278 11.84344,1.93745 2.9508,2.35078 3.39962,2.50317 5.73474,1.94727 1.39336,-0.33173 4.30255,-0.12662 6.46482,0.45578 5.20617,1.40219 8.68384,5.3357 9.74766,11.02508 0.68493,3.66308 0.52304,4.86118 -1.41962,10.50722 -5.40192,15.69979 -13.93499,23.12707 -21.7528,18.93387 -1.5218,-0.81627 -3.3201,-2.03515 -3.99619,-2.70865 -0.89052,-0.88712 -1.83525,-1.09687 -3.42825,-0.7611 -3.201,0.67468 -6.71526,0.19266 -9.05481,-1.24199 z"
           style="fill:#d40000;fill-opacity:1;stroke:#1a1a1a;stroke-width:1.20312035;stroke-miterlimit:4;stroke-dasharray:none;stroke-dashoffset:0" />
        <path
           style="fill:#d40000;fill-opacity:1"
           inkscape:connector-curvature="0"
           d="m -431.86901,-537.82189 c -2.0398,-0.54656 -4.18893,-0.68516 -6.13895,-0.47892 0.61229,-3.91695 3.0191,-6.91583 5.78504,-6.90345 1.02479,-0.0169 1.8238,-0.82307 1.80689,-1.84786 -0.0169,-1.02478 -0.82307,-1.8238 -1.84786,-1.80688 -4.50711,-0.0417 -8.2302,4.062 -9.34285,9.3024 -1.4861,-0.98121 -3.04508,-1.69043 -4.81289,-2.16412 -8.83919,-2.36845 -17.97772,2.90768 -20.30974,11.61087 -0.18219,0.67994 -5.13509,16.98866 0.3037,26.60802 1.75547,3.23964 4.55523,5.30159 8.09091,6.24897 2.58374,0.69232 5.17726,0.80425 7.81699,0.19981 2.02028,1.70733 4.28586,3.04314 6.86963,3.73546 15.77453,4.22678 23.37048,-23.0338 23.69842,-24.25769 2.19603,-8.73963 -3.08011,-17.87816 -11.91929,-20.24661 z m -11.00418,41.06818 c -2.31178,-0.61944 -4.34183,-1.74638 -5.91772,-3.48041 l -0.80616,-0.799 -1.09766,0.28887 c -2.19532,0.57778 -4.5533,0.67471 -6.86508,0.0553 -2.58376,-0.69231 -4.5045,-2.22723 -5.79864,-4.46875 -4.50641,-8.20353 0.019,-23.46079 0.0919,-23.73276 1.82189,-6.79937 8.89132,-10.8809 15.69069,-9.05902 2.31177,0.61944 4.34182,1.74639 5.9177,3.48041 l 0.80616,0.79901 1.09766,-0.28888 c 2.19533,-0.57778 4.55332,-0.67471 6.8651,-0.0553 6.79937,1.82189 10.88091,8.89131 9.05902,15.69068 0.0996,0.17242 -6.6681,24.88568 -19.04295,21.56985 z"
           id="path7513" />
      </g>
      <path
         id="path7515"
         d="m -456.66228,-545.92273 2.44132,-9.11116 c 0.14575,-0.54395 -0.25245,-1.23364 -0.79639,-1.37939 -0.54395,-0.14575 -1.23365,0.25244 -1.3794,0.79639 l -2.44133,9.11115 c -0.14575,0.54396 0.25245,1.23366 0.7964,1.37941 0.54394,0.14575 1.19721,-0.11647 1.3794,-0.7964 z"
         inkscape:connector-curvature="0"
         style="fill:#cccccc" />
      <path
         id="path7517"
         d="m -417.25524,-533.61464 3.06077,-11.42293 c 0.14575,-0.54396 -0.25245,-1.23366 -0.7964,-1.37941 -0.54396,-0.14575 -1.23366,0.25245 -1.37941,0.7964 l -3.06077,11.42293 c -0.14575,0.54395 0.25245,1.23366 0.7964,1.37941 0.67994,0.18219 1.19722,-0.11646 1.37941,-0.7964 z"
         inkscape:connector-curvature="0"
         style="fill:#cccccc" />
      <path
         id="path7519"
         d="m -445.46964,-547.44195 2.69639,-10.06306 c 0.14575,-0.54396 -0.25245,-1.23365 -0.7964,-1.3794 -0.54396,-0.14575 -1.23365,0.25244 -1.3794,0.79639 l -2.69639,10.06307 c -0.14575,0.54395 0.25244,1.23365 0.79639,1.3794 0.54395,0.14575 1.23366,-0.25245 1.37941,-0.7964 z"
         inkscape:connector-curvature="0"
         style="fill:#cccccc" />
      <path
         id="path7521"
         d="m -424.48402,-540.36136 3.09721,-11.55892 c 0.14575,-0.54395 -0.25245,-1.23365 -0.7964,-1.37941 -0.54395,-0.14575 -1.23365,0.25246 -1.3794,0.79641 l -3.06076,11.42293 c -0.14575,0.54395 0.25244,1.23365 0.79639,1.3794 0.50751,0.28174 1.19722,-0.11646 1.34296,-0.66041 z"
         inkscape:connector-curvature="0"
         style="fill:#cccccc" />
      <path
         id="path7523"
         d="m -435.25299,-551.8462 2.18626,-8.15924 c 0.14575,-0.54394 -0.25244,-1.23364 -0.79639,-1.37939 -0.54396,-0.14576 -1.23366,0.25244 -1.37941,0.79639 l -2.18626,8.15924 c -0.14575,0.54395 0.25245,1.23365 0.7964,1.3794 0.67993,0.18219 1.19721,-0.11645 1.3794,-0.7964 z"
         inkscape:connector-curvature="0"
         style="fill:#cccccc" />
    </g>
  </g>
</svg>
